# AST/ASF file generated using VICON BodyLanguage
# -----------------------------------------------
:version 1.10
:name VICON
:units
  mass 1.0
  length 0.45
  angle deg
:documentation
   .ast/.asf automatically generated from VICON data using
   VICON BodyBuilder and BodyLanguage model FoxedUp or BRILLIANT.MOD
:root
   order TX TY TZ RX RY RZ
   axis XYZ
   position 0 0 0  
   orientation 0 0 0 
:bonedata
  begin
     id 1 
     name lhipjoint
     direction 0.635376 -0.686425 0.353719 
     length 2.47244 
     axis 0 0 0  XYZ
  end
  begin
     id 2 
     name lfemur
     direction 0.34202 -0.939693 0  
     length 7.25268  
     axis 0 0 20  XYZ
    dof rx ry rz
    limits (-160.0 20.0)
           (-70.0 70.0)
           (-60.0 70.0)
  end
  begin
     id 3 
     name ltibia
     direction 0.34202 -0.939693 0   
     length 7.6767   
     axis 0 0 20   XYZ
    dof rx
    limits (-10.0 170.0)
  end
  begin
     id 4 
     name lfoot
     direction 0.0803374 -0.220725 0.972022   
     length 2.22945   
     axis -90 7.62852e-016 20   XYZ
    dof rx rz
    limits (-45.0 90.0)
           (-70.0 20.0)
  end
  begin
     id 5 
     name ltoes
     direction 1.53579e-011 -4.21994e-011 1   
     length 1.11848   
     axis -90 7.62852e-016 20   XYZ
    dof rx
    limits (-90.0 20.0)
  end
  begin
     id 6 
     name rhipjoint
     direction -0.664428 -0.664335 0.342336   
     length 2.55466  
     axis 0 0 0  XYZ 
  end
  begin
     id 7 
     name rfemur
     direction -0.34202 -0.939693 0   
     length 6.83172   
     axis 0 0 -20   XYZ
    dof rx ry rz
    limits (-160.0 20.0)
           (-70.0 70.0)
           (-70.0 60.0)
  end
  begin
     id 8 
     name rtibia
     direction -0.34202 -0.939693 0   
     length 7.62692   
     axis 0 0 -20   XYZ
    dof rx
    limits (-10.0 170.0)
 end
 begin
     id 9 
     name rfoot
     direction -0.0949276 -0.260811 0.960711   
     length 2.19684  
     axis -90 -7.62852e-016 -20   XYZ
    dof rx rz
    limits (-45.0 90.0)
           (-20.0 70.0)
  end
  begin
     id 10 
     name rtoes
     direction -1.53543e-011 -4.2183e-011 1   
     length 1.09848   
     axis -90 -7.62852e-016 -20   XYZ
    dof rx
    limits (-90.0 20.0)
  end
  begin
     id 11 
     name lowerback
     direction 0.0118782 0.999815 -0.0151555   
     length 2.15772   
     axis 0 0 0   XYZ
    dof rx ry rz
    limits (-20.0 45.0)
           (-30.0 30.0)
           (-30.0 30.0)
  end
  begin
     id 12 
     name upperback
     direction 0.00130825 0.999065 0.0432113   
     length 2.14863   
     axis 0 0 0   XYZ
    dof rx ry rz
    limits (-20.0 45.0)
           (-30.0 30.0)
           (-30.0 30.0)
  end
  begin
     id 13 
     name thorax
     direction -0.00347005 0.998773 0.0494011   
     length 2.14936   
     axis 0 0 0   XYZ
    dof rx ry rz
    limits (-20.0 45.0)
           (-30.0 30.0)
           (-30.0 30.0)
  end
  begin
     id 14 
     name lowerneck
     direction -0.0262159 0.99424 0.103921   
     length 1.69373   
     axis 0 0 0   XYZ
    dof rx ry rz
    limits (-20.0 45.0)
           (-30.0 30.0)
           (-30.0 30.0)
  end
  begin
     id 15 
     name upperneck
     direction 0.0353511 0.977394 -0.20845   
     length 1.70857   
     axis 0 0 0   XYZ
    dof rx ry rz
    limits (-20.0 45.0)
           (-30.0 30.0)
           (-30.0 30.0)
  end
  begin
     id 16
     name head
     direction 0.0139214 0.996594 -0.0812836  
     length 1.72777  
     axis 0 0 0   XYZ
    dof rx ry rz
    limits (-20.0 45.0)
           (-30.0 30.0)
           (-30.0 30.0)
  end
  begin
     id 17 
     name lclavicle
     direction 0.841247 0.537205 -0.0609508  
     length 3.55371  
     axis 0 0 0   XYZ
    dof ry rz
    limits (-20.0 10.0)
           (0.0 20.0)
  end
  begin
     id 18 
     name lhumerus
     direction 1 -4.48964e-011 1.60116e-018   
     length 4.91377   
     axis -180 -30 -90   XYZ
    dof rx ry rz
    limits (-60.0 90.0)
           (-90.0 90.0)
           (-90.0 90.0)
  end
  begin
     id 19
     name lradius
     direction 1 -4.48989e-011 -8.93847e-027   
     length 3.00291   
     axis -180 -30 -90   XYZ
    dof rx
    limits (-10.0 170.0)
  end
  begin
     id 20
     name lwrist
     direction 1 -4.48932e-011 -7.31504e-027   
     length 1.50145   
     axis 5.74121e-015 90 90   XYZ
    dof ry
    limits (-180.0 0.0)
 end
  begin
     id 21 
     name lhand
     direction 1 -4.48971e-011 -1.46301e-026   
     length 0.450922   
     axis 9.33524e-015 90 90   XYZ
    dof rx rz
    limits (-90.0 90.0)
           (-45.0 45.0)
  end
  begin
     id 22 
     name lfingers
     direction 1 -4.49039e-011 -2.92602e-026   
     length 0.363545   
     axis 1.86705e-014 90 90   XYZ
    dof rx
    limits (0.0 90.0)
  end
  begin
     id 23
     name lthumb
     direction 0.707107 -6.34941e-011 0.707107   
     length 0.52198   
     axis -90 45 2.85299e-015   XYZ
    dof rx rz
    limits (-45.0 45.0)
           (-45.0 45.0)
  end
  begin
     id 24 
     name rclavicle
     direction -0.825079 0.56158 -0.0622297   
     length 3.39909  
     axis 0 0 0   XYZ 
    dof ry rz
    limits (-10.0 20.0)
           (-20.0 0.0)
  end
  begin
     id 25 
     name rhumerus
     direction -1 -4.48965e-011 1.61691e-027  
     length 4.86725   
     axis -180 30 90   XYZ
    dof rx ry rz
    limits (-90.0 60.0)
           (-90.0 90.0)
           (-90.0 90.0)
  end
  begin
     id 26 
     name rradius
     direction -1 -4.48964e-011 -2.25776e-027   
     length 3.17144   
     axis -180 30 90   XYZ
    dof rx
    limits (-10.0 170.0)
  end
  begin
     id 27 
     name rwrist
     direction -1 -4.48961e-011 -7.31504e-027   
     length 1.58572   
     axis 5.74121e-015 -90 -90   XYZ
    dof ry
    limits (-180.0 0.0)
  end
  begin
     id 28
     name rhand
     direction -1 -4.49013e-011 -1.46301e-026   
     length 0.419368   
     axis 9.33524e-015 -90 -90   XYZ
    dof rx rz
    limits (-90.0 90.0)
           (-45.0 45.0)
  end
  begin
     id 29
     name rfingers
     direction -1 -4.489e-011 -2.92602e-026   
     length 0.338105   
     axis 1.86705e-014 -90 -90   XYZ
    dof rx
    limits (0.0 90.0)
  end
  begin
     id 30
     name rthumb
     direction -0.707107 -6.35022e-011 0.707107   
     length 0.485453   
     axis -90 -45 -2.85299e-015   XYZ
    dof rx rz
    limits (-45.0 45.0)
           (-45.0 45.0)
  end
:hierarchy
  begin
    root lhipjoint rhipjoint lowerback
    lhipjoint lfemur
    lfemur ltibia
    ltibia lfoot
    lfoot ltoes
    rhipjoint rfemur
    rfemur rtibia
    rtibia rfoot
    rfoot rtoes
    lowerback upperback
    upperback thorax
    thorax lowerneck lclavicle rclavicle
    lowerneck upperneck
    upperneck head
    lclavicle lhumerus
    lhumerus lradius
    lradius lwrist
    lwrist lhand lthumb
    lhand lfingers
    rclavicle rhumerus
    rhumerus rradius
    rradius rwrist
    rwrist rhand rthumb
    rhand rfingers
  end

#!OML:ASF H:\Swim 2\Project 1\Capture day 1\Session 1\male.ASF
:FULLY-SPECIFIED
:DEGREES
668
root -0.305397 14.5862 7.95118 106.675 6.50636 2.00859
lowerback -21.0203 0.666094 -7.42016
upperback -6.90026 2.38634 3.43618
thorax 3.71658 1.36205 8.5634
lowerneck -29.3539 -6.4276 -4.03331
upperneck 28.5256 -7.94 1.98473
head 15.0951 -3.42766 -0.172912
rclavicle -1.27222e-014 1.98785e-015
rhumerus -42.9627 22.5455 -46.3932
rradius 72.2189
rwrist -53.0563
rhand 12.6928 3.80726
rfingers 7.12502
rthumb 37.6757 -22.0795
lclavicle -1.27222e-014 1.98785e-015
lhumerus -45.9698 -49.0039 81.127
lradius 29.6266
lwrist 34.7853
lhand -29.153 -14.0483
lfingers 7.12502
lthumb -2.49943 15.9168
rfemur -42.2987 -2.91154 22.514
rtibia 49.3607
rfoot 28.6614 -0.325469
rtoes 13.8163
lfemur -43.3648 -0.517738 -22.6405
ltibia 59.9002
lfoot -0.369272 -4.23378
ltoes -1.70895
669
root -0.315663 14.5697 7.95589 107.461 6.58297 1.85741
lowerback -21.5728 0.479935 -7.15538
upperback -6.83344 2.11633 3.32489
thorax 4.14474 1.19476 8.2551
lowerneck -29.339 -6.19305 -3.85469
upperneck 27.5443 -7.72442 2.18131
head 14.6471 -3.31237 -0.062293
rclavicle 2.06736e-014 -1.15295e-014
rhumerus -43.1375 21.9932 -45.6856
rradius 70.7075
rwrist -54.867
rhand 17.3337 3.43668
rfingers 7.12502
rthumb 42.0436 -21.1388
lclavicle 2.06736e-014 -1.15295e-014
lhumerus -45.6585 -46.8805 78.894
lradius 26.7974
lwrist 30.7412
lhand -27.1893 -13.4323
lfingers 7.12502
lthumb -0.602896 16.5466
rfemur -42.507 -2.12238 22.331
rtibia 46.3955
rfoot 27.1712 -1.35874
rtoes 14.1488
lfemur -43.8305 -0.678881 -22.3167
ltibia 57.112
lfoot -0.998996 -3.2576
ltoes -2.79981
670
root -0.32419 14.5527 7.96153 108.212 6.64264 1.74927
lowerback -22.097 0.278751 -6.86391
upperback -6.71158 1.81496 3.2082
thorax 4.62129 1.00828 7.91263
lowerneck -29.3661 -5.96242 -3.73161
upperneck 26.6374 -7.51158 2.44587
head 14.2566 -3.19077 0.0788939
rclavicle -5.725e-014 -2.79292e-014
rhumerus -43.0025 21.3202 -44.7638
rradius 68.9874
rwrist -56.5283
rhand 22.0581 2.56454
rfingers 7.12502
rthumb 46.4473 -20.3414
lclavicle -5.725e-014 -2.79292e-014
lhumerus -44.3963 -43.8677 75.4635
lradius 23.7332
lwrist 25.7674
lhand -25.0952 -12.7544
lfingers 7.12502
lthumb 1.41962 17.2207
rfemur -42.6793 -1.38891 22.1006
rtibia 43.364
rfoot 25.6002 -2.43032
rtoes 14.5929
lfemur -44.2441 -0.976206 -21.9427
ltibia 54.2003
lfoot -1.69156 -2.24888
ltoes -4.29236
671
root -0.330727 14.5352 7.96876 108.91 6.68855 1.69086
lowerback -22.5778 0.0654623 -6.54032
upperback -6.53597 1.4841 3.08382
thorax 5.13627 0.805212 7.52894
lowerneck -29.4396 -5.72102 -3.64219
upperneck 25.8484 -7.28244 2.75109
head 13.936 -3.05569 0.239633
rclavicle -2.06736e-014 1.93815e-014
rhumerus -42.5853 20.5561 -43.6705
rradius 67.0351
rwrist -57.8763
rhand 26.4916 1.45791
rfingers 7.12502
rthumb 50.5269 -19.4837
lclavicle -2.06736e-014 1.93815e-014
lhumerus -42.1435 -39.5317 70.6248
lradius 20.4136
lwrist 19.5342
lhand -22.7574 -12.0372
lfingers 7.12502
lthumb 3.67737 17.9108
rfemur -42.8003 -0.715737 21.8286
rtibia 40.2952
rfoot 23.9648 -3.5419
rtoes 15.1482
lfemur -44.5909 -1.42886 -21.4964
ltibia 51.1961
lfoot -2.43633 -1.23065
ltoes -6.23961
672
root -0.336305 14.5177 7.97754 109.564 6.73577 1.64956
lowerback -23.035 -0.141911 -6.21412
upperback -6.32716 1.15584 2.97031
thorax 5.66937 0.605039 7.15012
lowerneck -29.4729 -5.46759 -3.58183
upperneck 25.1008 -7.0193 3.04274
head 13.629 -2.90994 0.404119
rclavicle -2.94201e-014 -5.71506e-015
rhumerus -41.9399 19.6963 -42.3807
rradius 64.8367
rwrist -58.8954
rhand 30.554 0.253119
rfingers 7.12502
rthumb 54.2043 -18.4458
lclavicle -2.94201e-014 -5.71506e-015
lhumerus -38.8554 -32.9301 64.0476
lradius 16.7405
lwrist 11.1729
lhand -20.1084 -11.419
lfingers 7.12502
lthumb 6.23517 18.4693
rfemur -42.8963 -0.0580481 21.5214
rtibia 37.2254
rfoot 22.2489 -4.70685
rtoes 15.713
lfemur -44.8973 -2.00435 -20.9522
ltibia 48.1438
lfoot -3.20536 -0.22055
ltoes -8.60126
673
root -0.341611 14.5005 7.98741 110.174 6.79924 1.60649
lowerback -23.4757 -0.329541 -5.89626
upperback -6.10505 0.851651 2.87738
thorax 6.19902 0.420689 6.79936
lowerneck -29.379 -5.20639 -3.56777
upperneck 24.3329 -6.71667 3.30675
head 13.2923 -2.75696 0.572533
rclavicle -5.08889e-014 -3.20043e-014
rhumerus -41.1392 18.7727 -40.9076
rradius 62.3915
rwrist -59.5692
rhand 34.1384 -0.804291
rfingers 7.12502
rthumb 57.3841 -17.0657
lclavicle -5.08889e-014 -3.20043e-014
lhumerus -36.8726 -25.9762 57.4396
lradius 14.8857
lwrist 3.09808
lhand -17.1431 -9.92759
lfingers 7.12502
lthumb 9.09723 19.8562
rfemur -42.9841 0.615956 21.1836
rtibia 34.2006
rfoot 20.4238 -5.8882
rtoes 16.1021
lfemur -45.1808 -2.68391 -20.2852
ltibia 45.0988
lfoot -3.9456 0.801478
ltoes -11.3354
674
root -0.347358 14.4839 7.99715 110.734 6.8887 1.54496
lowerback -23.8982 -0.492605 -5.58115
upperback -5.87843 0.576466 2.80529
thorax 6.71551 0.255119 6.47576
lowerneck -29.1265 -4.93901 -3.61766
upperneck 23.4801 -6.36894 3.54436
head 12.8951 -2.59656 0.749128
rclavicle -2.22639e-014 -2.65129e-014
rhumerus -40.1934 17.7626 -39.2588
rradius 59.7274
rwrist -59.899
rhand 37.0891 -1.82155
rfingers 7.12502
rthumb 59.9416 -15.6631
lclavicle -2.22639e-014 -2.65129e-014
lhumerus -35.3686 -17.8487 50.2633
lradius 13.5656
lwrist -5.46063
lhand -13.9256 -8.28619
lfingers 7.12502
lthumb 12.2009 21.338
rfemur -43.0744 1.327 20.8179
rtibia 31.2779
rfoot 18.4895 -7.02675
rtoes 16.18
lfemur -45.4542 -3.44298 -19.4844
ltibia 42.1288
lfoot -4.60061 1.89951
ltoes -14.5063
675
root -0.353572 14.4684 8.00647 111.231 7.00674 1.4659
lowerback -24.2904 -0.629051 -5.25633
upperback -5.65137 0.329413 2.7484
thorax 7.20963 0.108152 6.16617
lowerneck -28.716 -4.67971 -3.76385
upperneck 22.5296 -5.99062 3.77835
head 12.4373 -2.4335 0.943621
rclavicle 0 -4.38569e-015
rhumerus -39.129 16.6555 -37.4523
rradius 56.8843
rwrist -59.878
rhand 39.2494 -2.80617
rfingers 7.12502
rthumb 61.7701 -14.5834
lclavicle 0 -4.38569e-015
lhumerus -34.6336 -9.23511 42.8849
lradius 12.7996
lwrist -13.6967
lhand -10.4836 -6.57863
lfingers 7.12502
lthumb 15.5179 22.8187
rfemur -43.1766 2.07128 20.4273
rtibia 28.5233
rfoot 16.5379 -8.06117
rtoes 16.0793
lfemur -45.7197 -4.26802 -18.5526
ltibia 39.3045
lfoot -5.12928 3.12123
ltoes -17.7563
676
root -0.359949 14.4541 8.01411 111.643 7.14155 1.38353
lowerback -24.6297 -0.742666 -4.92984
upperback -5.42962 0.106535 2.70382
thorax 7.66477 -0.0218656 5.87131
lowerneck -28.1383 -4.44567 -4.02773
upperneck 21.4834 -5.60472 4.02346
head 11.9227 -2.27602 1.15927
rclavicle -1.07344e-014 -1.9015e-014
rhumerus -37.9882 15.4389 -35.4913
rradius 53.906
rwrist -59.4885
rhand 40.6055 -3.67833
rfingers 7.12502
rthumb 62.8952 -14.0111
lclavicle -1.07344e-014 -1.9015e-014
lhumerus -34.6997 -1.13994 35.7043
lradius 12.5165
lwrist -20.6495
lhand -7.07479 -4.72348
lfingers 7.12502
lthumb 18.7989 24.3881
rfemur -43.2816 2.81773 20.0142
rtibia 26.0049
rfoot 14.546 -8.96546
rtoes 15.5889
lfemur -45.9696 -5.16487 -17.5135
ltibia 36.7041
lfoot -5.54668 4.49332
ltoes -20.7817
677
root -0.365996 14.4414 8.01893 111.96 7.2766 1.31175
lowerback -24.9026 -0.84992 -4.56996
upperback -5.20521 -0.120988 2.64267
thorax 8.08738 -0.149413 5.53219
lowerneck -27.5199 -4.23061 -4.35057
upperneck 20.5448 -5.23379 4.27991
head 11.4524 -2.12355 1.38042
rclavicle 2.06736e-014 2.11298e-014
rhumerus -36.736 14.0737 -33.4353
rradius 50.8212
rwrist -58.7008
rhand 41.1973 -4.39203
rfingers 7.12502
rthumb 63.38 -14.0546
lclavicle 2.06736e-014 2.11298e-014
lhumerus -35.3666 5.7938 28.8869
lradius 12.6037
lwrist -25.828
lhand -3.91846 -2.6871
lfingers 7.12502
lthumb 21.8323 26.1013
rfemur -43.3903 3.5112 19.5966
rtibia 23.7888
rfoot 12.5614 -9.70659
rtoes 14.9116
lfemur -46.21 -6.11325 -16.4181
ltibia 34.4011
lfoot -5.87542 5.99979
ltoes -23.3536
678
root -0.371307 14.4303 8.01952 112.169 7.39689 1.25938
lowerback -25.0942 -0.953197 -4.18399
upperback -4.97531 -0.353876 2.55887
thorax 8.47204 -0.27462 5.14637
lowerneck -26.9117 -4.0652 -4.75954
upperneck 19.7441 -4.93516 4.64395
head 11.0507 -1.99101 1.63722
rclavicle 3.57812e-015 1.0371e-014
rhumerus -35.3768 12.4832 -31.2789
rradius 47.6536
rwrist -57.4592
rhand 41.1176 -4.89371
rfingers 7.12502
rthumb 63.3149 -14.6481
lclavicle 3.57812e-015 1.0371e-014
lhumerus -36.3432 11.4003 22.5044
lradius 12.9287
lwrist -29.4005
lhand -1.11645 -0.539573
lfingers 7.12502
lthumb 24.5206 27.9105
rfemur -43.487 4.0858 19.2117
rtibia 21.9306
rfoot 10.513 -10.2667
rtoes 13.8452
lfemur -46.434 -7.08071 -15.3323
ltibia 32.462
lfoot -6.19632 7.56724
ltoes -25.3376
679
root -0.375608 14.4209 8.01468 112.265 7.48708 1.22737
lowerback -25.2104 -1.05662 -3.78749
upperback -4.73824 -0.591799 2.44835
thorax 8.82272 -0.397645 4.71939
lowerneck -26.3931 -3.9185 -5.15616
upperneck 19.1852 -4.67754 5.01496
head 10.7591 -1.8696 1.88327
rclavicle 5.56597e-015 -1.18277e-014
rhumerus -33.9136 10.5934 -29.0075
rradius 44.4353
rwrist -55.7471
rhand 40.575 -5.22072
rfingers 7.12502
rthumb 62.8701 -15.5874
lclavicle 5.56597e-015 -1.18277e-014
lhumerus -37.3985 15.7915 16.5605
lradius 13.3815
lwrist -31.8541
lhand 1.17854 1.56766
lfingers 7.12502
lthumb 26.7187 29.7013
rfemur -43.5599 4.46486 18.9106
rtibia 20.4751
rfoot 8.46361 -10.5856
rtoes 12.6145
lfemur -46.6364 -8.01237 -14.3393
ltibia 30.9324
lfoot -6.52604 9.08451
ltoes -26.7794
680
root -0.378845 14.4129 8.00352 112.255 7.54398 1.21427
lowerback -25.268 -1.15522 -3.41096
upperback -4.50097 -0.819447 2.32805
thorax 9.13834 -0.511771 4.29398
lowerneck -25.918 -3.8037 -5.54091
upperneck 18.8451 -4.47894 5.39251
head 10.5592 -1.76996 2.11785
rclavicle 1.88845e-015 -1.27999e-014
rhumerus -32.377 8.30903 -26.5805
rradius 41.1854
rwrist -53.4668
rhand 39.7761 -5.19905
rfingers 7.12502
rthumb 62.2093 -16.4299
lclavicle 1.88845e-015 -1.27999e-014
lhumerus -38.3838 19.2829 11.0095
lradius 13.8808
lwrist -33.8229
lhand 2.85383 3.50168
lfingers 7.12502
lthumb 28.3209 31.3802
rfemur -43.6027 4.60193 18.7413
rtibia 19.4537
rfoot 6.50981 -10.6033
rtoes 11.2848
lfemur -46.8054 -8.82647 -13.524
ltibia 29.8284
lfoot -6.87494 10.3863
ltoes -27.8162
681
root -0.381017 14.4061 7.98595 112.137 7.56862 1.21367
lowerback -25.2756 -1.2437 -3.07126
upperback -4.26649 -1.02479 2.20799
thorax 9.41955 -0.612167 3.89602
lowerneck -25.447 -3.68819 -5.90764
upperneck 18.6688 -4.28823 5.74374
head 10.4184 -1.67458 2.33803
rclavicle 3.77691e-015 -1.42286e-014
rhumerus -30.805 5.54367 -23.9614
rradius 37.9711
rwrist -50.6355
rhand 38.7626 -4.91054
rfingers 7.12502
rthumb 61.3618 -17.1771
lclavicle 3.77691e-015 -1.42286e-014
lhumerus -39.2021 22.1071 5.83022
lradius 14.3636
lwrist -35.6718
lhand 3.89152 5.11623
lfingers 7.12502
lthumb 29.3121 32.8259
rfemur -43.601 4.55083 18.6846
rtibia 18.8878
rfoot 4.75956 -10.3621
rtoes 9.86754
lfemur -46.9029 -9.45665 -12.955
ltibia 29.1361
lfoot -7.21047 11.3139
ltoes -28.542
682
root -0.38243 14.4003 7.96283 111.916 7.57143 1.21054
lowerback -25.2527 -1.31964 -2.76746
upperback -4.03589 -1.20452 2.09543
thorax 9.67594 -0.698122 3.53491
lowerneck -24.9996 -3.55242 -6.24793
upperneck 18.6397 -4.07625 6.05259
head 10.3305 -1.57181 2.54214
rclavicle 2.15681e-014 -8.47164e-015
rhumerus -29.221 2.18754 -21.1418
rradius 34.8634
rwrist -47.2513
rhand 37.6025 -4.38967
rfingers 7.12502
rthumb 60.3798 -17.765
lclavicle 2.15681e-014 -8.47164e-015
lhumerus -39.7882 24.4095 1.02292
lradius 14.7815
lwrist -37.4958
lhand 4.19001 6.38851
lfingers 7.12502
lthumb 29.5971 34.048
rfemur -43.5629 4.35533 18.7326
rtibia 18.7857
rfoot 3.39566 -9.85592
rtoes 8.45129
lfemur -46.8949 -9.84632 -12.67
ltibia 28.8238
lfoot -7.45765 11.7511
ltoes -29.0953
